<svg width="190" height="40" viewBox="0 0 190 40" fill="none" xmlns="http://www.w3.org/2000/svg">
<path d="M15.6491 8.84094L15.0329 12.7702C14.7072 12.7497 14.3806 12.7497 14.0549 12.7702C9.78071 12.7702 6.60198 15.4716 5.86842 20.4225L4.08834 31.7093H0L3.52105 9.05705H7.43334L6.84649 12.8586C8.69505 10.2162 11.7368 8.84094 15.6491 8.84094Z" fill="url(#paint0_linear)"/>
<path d="M36.1891 21.7486H17.9285C17.8209 25.727 20.5986 28.3792 25.0684 28.3792C27.6495 28.4206 30.1421 27.4354 32.0029 25.6386L33.8515 28.2908C32.593 29.5006 31.1084 30.4481 29.4835 31.0787C27.8585 31.7093 26.1252 32.0104 24.3838 31.9647C17.1069 31.9647 13.0088 27.1317 14.0554 20.3832C14.5005 17.2013 16.0686 14.2858 18.474 12.1674C20.8795 10.049 23.9624 8.86853 27.1615 8.84094C33.6754 8.84094 37.578 13.5364 36.5021 20.5011C36.4434 20.8547 36.326 21.3655 36.1891 21.7486ZM18.3491 18.8016H32.8539C32.9428 17.9473 32.8446 17.0837 32.5663 16.2715C32.288 15.4592 31.8363 14.7178 31.2428 14.0993C30.6493 13.4808 29.9284 13 29.1305 12.6907C28.3325 12.3813 27.4769 12.2509 26.6236 12.3085C24.7271 12.3158 22.8872 12.9584 21.3955 14.1345C19.9038 15.3107 18.8454 16.9531 18.3882 18.8016H18.3491Z" fill="url(#paint1_linear)"/>
<path d="M61.2959 18.664L59.2713 31.7092H55.1927L57.1489 19.1454C57.8433 14.7053 55.9654 12.5245 52.0922 12.5245C47.7496 12.5245 44.5415 15.1277 43.7786 20.0393L41.9594 31.7092H37.8711L41.3921 9.05696H45.3044L44.7665 12.4754C45.8733 11.2811 47.2221 10.3388 48.7219 9.71188C50.2217 9.08495 51.8379 8.78794 53.4615 8.84085C58.9485 8.84085 62.3326 12.0039 61.2959 18.664Z" fill="url(#paint2_linear)"/>
<path d="M77.1794 30.3831C75.66 31.4445 73.8462 31.9979 71.9957 31.9646C67.4476 31.9646 65.247 29.4401 65.9512 24.8723L67.9073 12.4362H64.0537L64.5525 9.05698H68.3768L69.1495 4.14539H73.2574L72.4945 9.05698H78.9595L78.4314 12.4362H71.9663L70.0102 24.7053C69.6385 27.1316 70.7046 28.5069 72.9444 28.5069C74.1454 28.5032 75.3163 28.1294 76.2992 27.4361L77.1794 30.3831Z" fill="url(#paint3_linear)"/>
<path d="M99.3519 18.0354L97.2295 31.7093H93.3172L93.7867 28.7132C92.1044 30.7663 89.405 31.9647 85.8741 31.9647C80.7686 31.9647 77.9615 29.2339 78.5679 25.2948C79.2232 21.67 81.9814 18.6641 88.7007 18.6641H95.1658L95.2929 17.8488C95.8309 14.391 94.1388 12.3871 90.0994 12.3871C87.4013 12.3955 84.7726 13.2469 82.578 14.8232L81.3456 11.7879C84.2308 9.82781 87.6433 8.79962 91.1264 8.84092C97.2882 8.84092 100.31 11.837 99.3519 18.0354ZM94.2171 24.7839L94.7061 21.6209H88.4073C84.3679 21.6209 82.979 23.2024 82.6758 25.1278C82.3237 27.3969 83.9767 28.8016 87.0869 28.8016C88.5287 28.8573 89.9577 28.5115 91.216 27.8025C92.4743 27.0934 93.5129 26.0488 94.2171 24.7839Z" fill="url(#paint4_linear)"/>
<path d="M107.177 0H111.255L106.365 31.7092H102.276L107.177 0Z" fill="url(#paint5_linear)"/>
<path d="M116.489 0H120.577L115.686 31.7092H111.598L116.489 0Z" fill="url(#paint6_linear)"/>
<path d="M146.006 20.3831C145.591 23.599 144.019 26.5516 141.587 28.6847C139.155 30.8178 136.031 31.9844 132.802 31.9646C129.614 31.9646 126.992 30.7269 125.506 28.2908L123.686 40H119.598L124.4 9.05698H128.313L127.755 12.6523C128.837 11.4299 130.168 10.4566 131.659 9.79875C133.149 9.14094 134.764 8.8142 136.392 8.84087C142.984 8.84087 147.082 13.4578 146.006 20.3831ZM141.879 20.3831C142.622 15.5992 139.834 12.4362 135.492 12.4362C133.316 12.4677 131.225 13.2903 129.606 14.7514C127.988 16.2126 126.952 18.2133 126.689 20.3831C125.936 25.2161 128.724 28.3792 133.017 28.3792C135.209 28.354 137.317 27.5288 138.948 26.0574C140.578 24.5861 141.62 22.5692 141.879 20.3831Z" fill="url(#paint7_linear)"/>
<path d="M163.034 8.84094L162.408 12.7702C162.082 12.7492 161.756 12.7492 161.43 12.7702C157.048 12.7702 153.909 15.4618 153.136 20.4127L151.385 31.6995H147.307L150.818 9.04723H154.73L154.134 12.8488C156.051 10.2162 159.073 8.84094 163.034 8.84094Z" fill="url(#paint8_linear)"/>
<path d="M189.952 22.1317L184.083 15.6877C184.042 15.6497 183.988 15.6287 183.932 15.6287C183.876 15.6287 183.821 15.6497 183.78 15.6877L176.572 22.338C176.539 22.3627 176.515 22.3972 176.502 22.4366C176.49 22.4759 176.49 22.5181 176.503 22.5573C176.516 22.5964 176.541 22.6304 176.575 22.6545C176.608 22.6786 176.648 22.6916 176.689 22.6916L180.826 22.6327C180.507 24.1639 179.78 25.5795 178.723 26.7289C177.198 28.4072 175.107 29.4573 172.855 29.6759C171.719 29.7847 170.574 29.6548 169.491 29.2946C168.408 28.9344 167.412 28.3517 166.566 27.5835C165.687 26.7506 164.994 25.7409 164.53 24.6203C164.067 23.4998 163.844 22.2936 163.876 21.0806C163.659 22.3629 163.702 23.676 164.003 24.9411C164.301 26.2053 164.865 27.3909 165.656 28.4185C166.468 29.4679 167.495 30.3291 168.669 30.9431C169.902 31.5845 171.254 31.9625 172.64 32.0531C174.11 32.1522 175.585 31.962 176.982 31.4932C178.457 31.0056 179.829 30.2497 181.032 29.2633C183.147 27.5494 184.681 25.2192 185.423 22.5934L189.746 22.4951C189.79 22.5008 189.835 22.4931 189.875 22.473C189.915 22.453 189.948 22.4215 189.97 22.3825C189.992 22.3436 190.002 22.2989 189.999 22.2543C189.996 22.2096 189.979 22.1669 189.952 22.1317Z" fill="url(#paint9_linear)"/>
<path d="M184.376 15.9824L184.112 15.6877C184.07 15.6497 184.016 15.6286 183.96 15.6286C183.904 15.6286 183.85 15.6497 183.809 15.6877L183.584 15.9038C183.155 15.0972 182.593 14.3697 181.921 13.7525C181.076 12.9846 180.082 12.402 179.001 12.0418C177.92 11.6815 176.776 11.5515 175.642 11.6602C173.39 11.8787 171.299 12.9288 169.773 14.6071C168.704 15.7378 167.963 17.1408 167.631 18.6641L171.759 18.5953C171.799 18.5983 171.838 18.6134 171.871 18.6387C171.903 18.6641 171.927 18.6984 171.939 18.7374C171.952 18.7764 171.952 18.8183 171.941 18.8577C171.93 18.8972 171.907 18.9323 171.876 18.9588L164.668 25.5993C164.649 25.6202 164.627 25.6369 164.602 25.6484C164.576 25.6598 164.549 25.6658 164.521 25.6658C164.493 25.6658 164.466 25.6598 164.441 25.6484C164.415 25.6369 164.393 25.6202 164.374 25.5993L164.11 25.3144L158.535 19.1651C158.51 19.1318 158.494 19.092 158.49 19.0503C158.486 19.0085 158.493 18.9664 158.511 18.9287C158.53 18.891 158.558 18.8591 158.593 18.8366C158.629 18.8142 158.67 18.8021 158.711 18.8016L163.064 18.7328C163.352 17.6782 163.772 16.6648 164.316 15.7171C165.902 12.9451 168.441 10.8495 171.456 9.82322C172.857 9.35923 174.335 9.16917 175.808 9.2633C177.19 9.3572 178.538 9.735 179.769 10.3733C180.878 10.9458 181.857 11.7421 182.644 12.7124C183.432 13.6827 184.011 14.806 184.347 16.0118L184.376 15.9824Z" fill="url(#paint10_linear)"/>
<defs>
<linearGradient id="paint0_linear" x1="-7.07145" y1="16.4048" x2="185.948" y2="66.1268" gradientUnits="userSpaceOnUse">
<stop offset="0.25" stop-color="#2D9CBD"/>
<stop offset="0.42" stop-color="#2E9CC3"/>
<stop offset="1" stop-color="#329BD6"/>
</linearGradient>
<linearGradient id="paint1_linear" x1="-125.557" y1="295.863" x2="4377.06" y2="1443.77" gradientUnits="userSpaceOnUse">
<stop offset="0.25" stop-color="#2D9CBD"/>
<stop offset="0.42" stop-color="#2E9CC3"/>
<stop offset="1" stop-color="#329BD6"/>
</linearGradient>
<linearGradient id="paint2_linear" x1="-74.2815" y1="171.929" x2="4563.72" y2="1410.52" gradientUnits="userSpaceOnUse">
<stop offset="0.25" stop-color="#2D9CBD"/>
<stop offset="0.42" stop-color="#2E9CC3"/>
<stop offset="1" stop-color="#329BD6"/>
</linearGradient>
<linearGradient id="paint3_linear" x1="25.8948" y1="-33.4124" x2="3103.63" y2="393.299" gradientUnits="userSpaceOnUse">
<stop offset="0.25" stop-color="#2D9CBD"/>
<stop offset="0.42" stop-color="#2E9CC3"/>
<stop offset="1" stop-color="#329BD6"/>
</linearGradient>
<linearGradient id="paint4_linear" x1="34.7227" y1="-65.8541" x2="4230.23" y2="921.896" gradientUnits="userSpaceOnUse">
<stop offset="0.25" stop-color="#2D9CBD"/>
<stop offset="0.42" stop-color="#2E9CC3"/>
<stop offset="1" stop-color="#329BD6"/>
</linearGradient>
<linearGradient id="paint5_linear" x1="104.162" y1="-382.096" x2="1983.61" y2="-244.384" gradientUnits="userSpaceOnUse">
<stop offset="0.25" stop-color="#2D9CBD"/>
<stop offset="0.42" stop-color="#2E9CC3"/>
<stop offset="1" stop-color="#329BD6"/>
</linearGradient>
<linearGradient id="paint6_linear" x1="118.781" y1="-455.345" x2="1998.33" y2="-317.632" gradientUnits="userSpaceOnUse">
<stop offset="0.25" stop-color="#2D9CBD"/>
<stop offset="0.42" stop-color="#2E9CC3"/>
<stop offset="1" stop-color="#329BD6"/>
</linearGradient>
<linearGradient id="paint7_linear" x1="106.575" y1="-282.201" x2="5440.15" y2="894.806" gradientUnits="userSpaceOnUse">
<stop offset="0.25" stop-color="#2D9CBD"/>
<stop offset="0.42" stop-color="#2E9CC3"/>
<stop offset="1" stop-color="#329BD6"/>
</linearGradient>
<linearGradient id="paint8_linear" x1="182.221" y1="-444.672" x2="3390.32" y2="126.504" gradientUnits="userSpaceOnUse">
<stop offset="0.25" stop-color="#2D9CBD"/>
<stop offset="0.42" stop-color="#2E9CC3"/>
<stop offset="1" stop-color="#329BD6"/>
</linearGradient>
<linearGradient id="paint9_linear" x1="237.266" y1="-347.75" x2="4958.23" y2="1602.28" gradientUnits="userSpaceOnUse">
<stop offset="0.25" stop-color="#2D9CBD"/>
<stop offset="0.42" stop-color="#2E9CC3"/>
<stop offset="1" stop-color="#329BD6"/>
</linearGradient>
<linearGradient id="paint10_linear" x1="259.448" y1="-423.418" x2="4930.73" y2="1481.53" gradientUnits="userSpaceOnUse">
<stop offset="0.25" stop-color="#2D9CBD"/>
<stop offset="0.42" stop-color="#2E9CC3"/>
<stop offset="1" stop-color="#329BD6"/>
</linearGradient>
</defs>
</svg>
